<svg width="22" height="22" viewBox="0 0 22 22" fill="none" xmlns="http://www.w3.org/2000/svg">
<path fill-rule="evenodd" clip-rule="evenodd" d="M6.69543 12.3909C6.05067 12.3909 5.52686 11.867 5.52686 11.2223C5.52686 10.5794 6.05067 10.0556 6.69543 10.0556C7.34019 10.0556 7.864 10.5794 7.864 11.2223C7.864 11.867 7.34019 12.3909 6.69543 12.3909ZM11.2383 12.3909C10.5935 12.3909 10.0697 11.867 10.0697 11.2223C10.0697 10.5794 10.5935 10.0556 11.2383 10.0556C11.883 10.0556 12.4069 10.5794 12.4069 11.2223C12.4069 11.867 11.883 12.3909 11.2383 12.3909ZM14.6127 11.2223C14.6127 11.867 15.1365 12.3909 15.7812 12.3909C16.426 12.3909 16.9498 11.867 16.9498 11.2223C16.9498 10.5794 16.426 10.0556 15.7812 10.0556C15.1365 10.0556 14.6127 10.5794 14.6127 11.2223Z" fill="#200E32"/>
<path fill-rule="evenodd" clip-rule="evenodd" d="M11.02 1C5.21 1 1 5.74612 1 11.015C1 12.6975 1.49 14.4291 2.35 16.0115C2.51 16.2729 2.53 16.6024 2.42 16.9139L1.75 19.1572C1.6 19.698 2.06 20.0976 2.57 19.9374L4.59 19.3375C5.14 19.1572 5.57 19.3866 6.08 19.698C7.54 20.5583 9.36 21 11 21C15.96 21 21 17.1642 21 10.985C21 5.65598 16.7 1 11.02 1Z" stroke="#200E32" stroke-width="1.5" stroke-linecap="round" stroke-linejoin="round"/>
</svg>
